<svg width="25" height="25" viewBox="0 0 25 25" fill="none" xmlns="http://www.w3.org/2000/svg">
<path d="M22.0462 16.5605C21.7649 16.8417 21.3834 16.9997 20.9857 16.9997C20.5879 16.9997 20.2065 16.8417 19.9252 16.5605L12.5002 9.1355L5.07517 16.5605C4.79227 16.8337 4.41336 16.9849 4.02007 16.9815C3.62677 16.9781 3.25056 16.8203 2.97244 16.5422C2.69433 16.2641 2.53658 15.8879 2.53316 15.4946C2.52974 15.1013 2.68093 14.7224 2.95417 14.4395L11.4397 5.954C11.721 5.67279 12.1024 5.51482 12.5002 5.51482C12.8979 5.51482 13.2794 5.67279 13.5607 5.954L22.0462 14.4395C22.3274 14.7208 22.4854 15.1023 22.4854 15.5C22.4854 15.8977 22.3274 16.2792 22.0462 16.5605Z" fill="#68686E"/>
</svg>
