<svg width="503" height="473" viewBox="0 0 503 473" fill="none" xmlns="http://www.w3.org/2000/svg">
<path d="M501.99 400.135H1" stroke="#263238" stroke-linecap="round" stroke-linejoin="round"/>
<g opacity="0.3">
<path d="M476.014 52.6817H392.837V162.972H476.014V52.6817Z" fill="white" stroke="black" stroke-linecap="round" stroke-linejoin="round"/>
<path d="M471.238 59.0221H397.624V156.642H471.238V59.0221Z" fill="white" stroke="black" stroke-linecap="round" stroke-linejoin="round"/>
<path d="M450.964 85.8857H417.875V129.768H450.964V85.8857Z" fill="white" stroke="black" stroke-linecap="round" stroke-linejoin="round"/>
</g>
<g opacity="0.3">
<path d="M57.7201 59.5957H22.9102V105.752H57.7201V59.5957Z" fill="white" stroke="black" stroke-linecap="round" stroke-linejoin="round"/>
<path d="M55.7185 62.2445H24.9131V103.092H55.7185V62.2445Z" fill="white" stroke="black" stroke-linecap="round" stroke-linejoin="round"/>
<path d="M47.2395 73.4967H33.3906V91.8611H47.2395V73.4967Z" fill="white" stroke="black" stroke-linecap="round" stroke-linejoin="round"/>
<path d="M110.008 113.458H75.1982V159.614H110.008V113.458Z" fill="white" stroke="black" stroke-linecap="round" stroke-linejoin="round"/>
<path d="M107.996 116.118H77.1904V156.966H107.996V116.118Z" fill="white" stroke="black" stroke-linecap="round" stroke-linejoin="round"/>
<path d="M99.5178 127.359H85.6689V145.724H99.5178V127.359Z" fill="white" stroke="black" stroke-linecap="round" stroke-linejoin="round"/>
<path d="M22.0137 119.131L22.0137 153.941H68.1697V119.131H22.0137Z" fill="white" stroke="black" stroke-linecap="round" stroke-linejoin="round"/>
<path d="M24.6729 121.134L24.6729 151.939H65.5208V121.134H24.6729Z" fill="white" stroke="black" stroke-linecap="round" stroke-linejoin="round"/>
<path d="M35.915 129.612V143.461H54.2794V129.612H35.915Z" fill="white" stroke="black" stroke-linecap="round" stroke-linejoin="round"/>
<path d="M112.396 40.689H61.7246V107.89H112.396V40.689Z" fill="white" stroke="black" stroke-linecap="round" stroke-linejoin="round"/>
<path d="M109.497 44.558H64.6445V104.031H109.497V44.558Z" fill="white" stroke="black" stroke-linecap="round" stroke-linejoin="round"/>
<path d="M97.1395 60.9201H76.9814V87.6585H97.1395V60.9201Z" fill="white" stroke="black" stroke-linecap="round" stroke-linejoin="round"/>
</g>
<path d="M141.116 235.335H136.454V247.192H141.116V235.335Z" fill="#6E6E6E" stroke="#263238" stroke-linecap="round" stroke-linejoin="round"/>
<path d="M363.887 235.335H359.226V247.192H363.887V235.335Z" fill="#6E6E6E" stroke="#263238" stroke-linecap="round" stroke-linejoin="round"/>
<path d="M370.29 62.9745H130.906V236.586H370.29V62.9745Z" fill="#6E6E6E" stroke="#263238" stroke-linecap="round" stroke-linejoin="round"/>
<path d="M363.887 67.6255H137.31V231.946H363.887V67.6255Z" fill="#263238" stroke="#263238" stroke-linecap="round" stroke-linejoin="round"/>
<path d="M316.219 206.24L330.464 223.332L330.683 220.485L333.53 219.828L333.749 218.076L336.596 217.189L323.665 199.44L316.219 206.24Z" fill="#E0E0E0" stroke="#263238" stroke-linecap="round" stroke-linejoin="round"/>
<path d="M323.665 199.44L316.219 206.24L323.644 215.156L324.76 207.992C325.851 207.108 326.895 206.169 327.888 205.176L323.665 199.44Z" fill="#263238" stroke="#263238" stroke-linecap="round" stroke-linejoin="round"/>
<path d="M334.187 184.976L349.527 205.833L346.899 207.804C346.899 207.804 343.823 209.775 342.947 210.213C341.945 210.618 340.922 210.967 339.881 211.256L338.786 213.717H335.063L323.008 194.841C323.008 194.841 323.008 192.87 325.417 190.243C327.826 187.615 334.187 184.976 334.187 184.976Z" fill="#E0E0E0" stroke="#263238" stroke-linecap="round" stroke-linejoin="round"/>
<path d="M334.187 184.976C334.187 184.976 327.826 187.615 325.417 190.243C323.008 192.87 323.008 194.841 323.008 194.841L328.9 204.05C329.518 203.358 330.089 202.627 330.61 201.86C332.696 198.731 336.148 200.817 336.148 200.817L337.524 195.279C337.72 194.712 338.046 194.198 338.474 193.778C338.903 193.358 339.424 193.044 339.996 192.86L334.187 184.976Z" fill="#4A91B5" stroke="#263238" stroke-linecap="round" stroke-linejoin="round"/>
<path d="M317.314 143.565C317.314 143.565 323.884 151.908 326.512 157.591C329.14 163.275 339.224 174.683 341.633 176.654C343.902 178.28 346.326 179.677 348.87 180.826C348.87 180.826 340.1 176.654 337.253 181.483C334.406 186.311 333.968 193.319 333.968 193.319C333.968 193.319 328.702 191.129 327.607 194.852C326.512 198.575 324.76 208.002 324.76 208.002C324.76 208.002 318.19 205.155 316.219 206.25C314.248 207.345 308.982 210.421 308.982 210.421L307.011 213.049C307.011 213.049 306.354 204.071 307.011 199.242C307.668 194.414 308.544 184.34 310.953 173.609C313.362 162.878 317.314 143.565 317.314 143.565Z" fill="#263238" stroke="#263238" stroke-linecap="round" stroke-linejoin="round"/>
<path d="M318.408 170.96L331.965 186.301C331.965 186.301 324.071 170.084 323.414 166.57C322.757 163.056 321.662 161.752 322.976 158.686C323.604 157.402 324.318 156.162 325.114 154.974C322.83 151.112 320.309 147.396 317.564 143.847L317.178 144.18C316.479 147.59 313.111 163.994 310.921 173.557C309.192 181.939 307.89 190.404 307.021 198.919C308.063 196.52 309.555 193.131 310.483 191.525C312.016 188.897 319.253 197.219 319.253 197.219C319.253 197.219 313.559 186.488 314.039 183.193C314.518 179.898 318.408 170.96 318.408 170.96Z" fill="#263238" stroke="#263238" stroke-linecap="round" stroke-linejoin="round"/>
<path d="M244.555 123.407C244.555 123.407 226.827 122.75 217.608 118.798C208.39 114.845 189.118 102.592 177.282 113.104C165.445 123.616 150.335 191.317 151.868 201.192C153.401 211.068 164.142 215.218 172.724 217.627C181.307 220.036 176.896 218.503 176.896 218.503L175.749 231.445H307.887L308.982 210.411C308.982 210.411 310.077 191.129 312.277 184.549C314.478 177.968 319.723 161.106 319.504 151.678C319.285 142.251 319.504 129.549 311.829 125.169C304.153 120.789 298.908 120.132 291.89 120.789C284.871 121.446 261.866 120.57 258.581 120.789C255.296 121.008 244.555 123.407 244.555 123.407Z" fill="#4A91B5" stroke="#263238" stroke-linecap="round" stroke-linejoin="round"/>
<path d="M319.503 151.668C319.451 149.332 319.42 146.777 319.295 144.201L318.189 141.375C318.189 141.375 313.81 154.087 312.975 154.932C312.141 155.777 311.839 142.689 311.839 142.689L308.554 148.164C308.554 148.164 309.211 138.528 308.992 135.452C308.773 132.375 303.517 129.101 302.641 128.663C301.765 128.225 267.049 123.449 260.781 129.758C254.514 136.067 245.67 138.966 243.47 139.143C241.248 139.507 239.053 140.019 236.9 140.676C236.661 143.297 236.588 145.93 236.681 148.56C236.9 151.626 236.9 160.834 236.9 160.834C235.359 158.711 234.038 156.437 232.958 154.046C230.33 148.831 226.159 141.333 226.159 140.676C225.37 145.538 224.858 150.44 224.626 155.36C224.711 157.497 224.49 159.636 223.969 161.71C223.969 161.71 218.275 153.608 216.085 148.779C213.895 143.951 210.6 136.953 210.6 136.953L210.162 156.455L204.03 139.769C204.03 139.769 206.877 160.146 206.001 163.431C205.125 166.716 204.468 168.468 203.811 168.697C203.154 168.927 200.745 160.146 196.584 154.233C192.423 148.32 189.128 146.777 189.128 146.777C189.128 146.777 194.822 157.518 195.479 162.774C196.136 168.03 194.436 169.573 193.07 169.792C191.704 170.011 181.463 169.135 174.445 170.011C169.789 170.687 165.235 171.937 160.888 173.734C160.888 173.734 179.304 171.763 182.589 173.734L185.342 175.382C184.821 175.434 183.83 176.06 181.932 178.511C178.418 183.109 174.257 190.128 175.133 193.851C176.009 197.574 176.885 200.202 176.176 200.64C175.467 201.078 170.013 209.545 170.013 209.545L180.973 208.888L176.582 211.735L182.725 210.64C182.725 210.64 182.068 211.297 183.601 213.049C185.134 214.801 190.39 218.086 190.39 218.086L193.237 219.411L183.163 219.849C183.163 219.849 185.572 221.82 190.828 222.477C196.084 223.134 196.751 223.572 197.408 223.572C197.867 223.572 197.679 228.494 197.533 231.455H307.886L308.981 210.421C308.981 210.421 310.076 191.139 312.277 184.559C314.477 177.979 319.722 161.095 319.503 151.668Z" fill="#263238" stroke="#263238" stroke-linecap="round" stroke-linejoin="round"/>
<path d="M219.11 161.471L227.046 170.543C227.046 170.543 234.71 173.672 237.537 173.672C240.363 173.672 243.794 175.09 244.065 179.063C244.336 183.036 243.491 188.449 244.065 191.577C244.638 194.706 247.464 200.368 246.609 202.068C246.022 203.225 245.05 204.141 243.861 204.659C242.671 205.177 241.338 205.264 240.092 204.905C236.692 204.05 234.71 205.468 233.574 199.232C232.437 192.996 231.874 191.014 231.874 191.014C231.874 191.014 227.338 195.832 225.064 196.969C222.791 198.106 219.965 196.395 215.992 198.669C212.148 201.045 208.703 204.012 205.782 207.46C202.654 210.859 197.846 212.278 196.146 213.717C194.369 215.556 192.756 217.549 191.328 219.671C191.328 219.671 183.392 216.543 185.374 213.143C187.355 209.744 185.374 210.015 186.792 208.044C188.21 206.073 183.664 193.58 184.811 193.298C185.958 193.016 190.473 193.016 190.473 188.48C190.473 183.944 187.345 177.989 187.345 176.852C187.345 175.716 193.299 164.338 194.999 168.916C196.699 173.495 201.256 177.144 203.79 176.571C206.324 175.997 206.919 169.772 206.627 165.235C206.335 160.699 211.445 158.978 213.145 158.425C214.844 157.873 219.11 161.471 219.11 161.471Z" fill="#CFCFCF" stroke="#263238" stroke-linecap="round" stroke-linejoin="round"/>
<path d="M198.274 197.031C198.274 197.031 202.258 200.076 204.844 194.216C207.43 188.355 210.945 184.59 216.107 182.953C220.141 181.508 224.062 179.765 227.839 177.739C226.525 180.156 224.867 182.369 222.916 184.309C220.101 186.885 216.576 189.471 216.346 190.879C216.117 192.286 216.346 191.577 221.978 190.879L227.609 190.17C227.609 190.17 225.732 193.454 223.855 193.924C221.978 194.393 214.699 195.571 211.643 197.918C208.588 200.264 206.836 203.017 203.905 205.896C200.975 208.774 190.766 213.404 190.766 206.365C190.766 199.326 192.173 197.25 198.274 197.031Z" fill="#263238" stroke="#263238" stroke-linecap="round" stroke-linejoin="round"/>
<path d="M231.874 190.962C231.874 190.962 228.745 181.577 233.573 178.771" stroke="#263238" stroke-linecap="round" stroke-linejoin="round"/>
<path d="M244.628 194.643C244.628 194.643 242.365 194.643 242.646 196.343C242.928 198.043 244.346 202.298 244.346 202.298" stroke="#263238" stroke-linecap="round" stroke-linejoin="round"/>
<path d="M215.429 149.28C215.429 149.28 205.219 148.435 203.52 151.835C201.82 155.234 202.956 159.489 204.656 162.326C206.356 165.162 206.638 168.843 207.493 172.817C208.348 176.79 208.619 181.034 210.037 181.316C212.376 181.934 214.846 181.836 217.129 181.034C220.81 179.898 221.665 177.906 221.665 175.372C221.665 172.838 220.81 167.707 220.81 165.725C220.81 163.744 219.684 158.926 219.392 154.953C219.257 153.752 218.824 152.603 218.132 151.612C217.44 150.621 216.511 149.819 215.429 149.28Z" fill="#CFCFCF" stroke="#263238" stroke-linecap="round" stroke-linejoin="round"/>
<path d="M219.391 169.417C217.55 168.492 215.43 168.288 213.447 168.843C209.755 169.699 209.755 171.68 209.755 174.517V177.353" stroke="#263238" stroke-linecap="round" stroke-linejoin="round"/>
<path d="M217.128 181.034L215.991 176.216" stroke="#263238" stroke-linecap="round" stroke-linejoin="round"/>
<path d="M212.592 180.471L212.311 178.49" stroke="#263238" stroke-linecap="round" stroke-linejoin="round"/>
<path d="M196.719 173.38C196.719 173.38 197.001 172.817 195.009 168.843C194.576 167.907 193.909 167.098 193.072 166.494C192.234 165.891 191.256 165.514 190.23 165.4C189.204 165.285 188.167 165.438 187.217 165.842C186.268 166.246 185.439 166.888 184.81 167.707C181.682 171.398 181.118 172.535 183.11 175.08C185.102 177.624 188.491 179.616 189.054 181.608C189.618 183.6 192.183 188.97 195.009 190.681C197.835 192.391 200.119 192.099 202.1 189.544C204.082 186.989 203.237 184.434 202.1 180.158C200.964 175.883 196.719 173.38 196.719 173.38Z" fill="#CFCFCF" stroke="#263238" stroke-linecap="round" stroke-linejoin="round"/>
<path d="M195.583 188.407C195.583 188.407 193.309 185.571 193.883 183.871C194.456 182.171 198.127 179.898 199.545 181.034" stroke="#263238" stroke-linecap="round" stroke-linejoin="round"/>
<path d="M182.527 191.525C182.527 191.525 177.146 190.107 176.27 196.625C175.394 203.142 177.125 205.697 179.106 206.553C181.087 207.408 185.061 206.553 186.761 207.971C188.46 209.389 191.297 210.526 196.146 211.37C200.995 212.215 200.682 209.389 201.819 205.113C202.956 200.838 199.546 200.577 197.846 199.732C196.158 199.101 194.616 198.137 193.31 196.896C191.61 195.217 186.229 191.244 182.527 191.525Z" fill="#CFCFCF" stroke="#263238" stroke-linecap="round" stroke-linejoin="round"/>
<path d="M193.883 208.252C193.255 206.927 193.081 205.431 193.388 203.996C193.696 202.562 194.467 201.268 195.583 200.316" stroke="#263238" stroke-linecap="round" stroke-linejoin="round"/>
<path d="M200.964 208.826L197.001 209.107" stroke="#263238" stroke-linecap="round" stroke-linejoin="round"/>
<path d="M182.819 209.952C182.819 209.952 179.419 210.526 179.993 214.489C180.566 218.451 183.121 220.443 184.237 222.143C185.353 223.843 190.494 227.816 192.747 228.4C194.999 228.984 197.283 228.118 197.002 224.156C196.72 220.193 193.873 218.201 193.028 216.501C192.184 214.801 190.765 213.665 189.629 211.965C188.492 210.265 186.229 207.689 182.819 209.952Z" fill="#CFCFCF" stroke="#263238" stroke-linecap="round" stroke-linejoin="round"/>
<path d="M195.583 221.298C195.169 220.577 194.523 220.017 193.751 219.708C192.979 219.4 192.125 219.361 191.328 219.598C188.491 220.443 186.791 222.425 187.647 224.135C188.502 225.845 192.746 228.379 192.746 228.379" stroke="#263238" stroke-linecap="round" stroke-linejoin="round"/>
<path d="M193.717 117.484C196.531 119.406 198.905 121.905 200.681 124.814C202.457 127.722 203.595 130.975 204.02 134.357C204.02 134.357 204.677 118.819 193.717 117.484Z" fill="#263238" stroke="#263238" stroke-linecap="round" stroke-linejoin="round"/>
<path d="M193.936 126.692C193.936 126.692 198.107 131.072 199.202 133.262C200.297 135.452 198.983 127.787 193.936 126.692Z" fill="#263238" stroke="#263238" stroke-linecap="round" stroke-linejoin="round"/>
<path d="M241.531 127.599C241.531 127.599 240.968 121.342 237.015 125.618C233.063 129.893 234.2 138.32 235.044 142.554C235.889 146.787 240.123 150.729 240.123 150.729C240.123 150.729 241.249 159.197 242.094 163.421C242.939 167.644 249.07 180.033 251.041 183.422C253.012 186.812 259.645 195.019 264.4 195.853C270.72 196.969 276.8 193.611 278.771 191.358C280.741 189.106 286.07 180.93 290.336 176.122C294.601 171.315 298.803 160.887 298.803 160.887C298.803 160.887 306.416 145.651 306.103 141.698C306.084 140.636 305.85 139.588 305.414 138.618C304.979 137.648 304.351 136.777 303.569 136.057C303.569 136.057 307.24 123.647 307.24 114.616C307.24 105.585 299.054 94.0198 291.723 90.6306C284.391 87.2414 268.582 84.1337 258.706 90.9121C248.831 97.6906 244.326 106.993 243.47 111.769C242.615 116.545 241.531 127.599 241.531 127.599Z" fill="#CFCFCF" stroke="#263238" stroke-linecap="round" stroke-linejoin="round"/>
<path d="M303.319 138.632C303.625 140.996 303.433 143.397 302.756 145.682C301.619 149.634 298.803 151.324 298.803 156.11C298.803 160.897 295.675 167.676 295.675 167.676" stroke="#263238" stroke-linecap="round" stroke-linejoin="round"/>
<path d="M280.741 143.68L297.959 143.117C298.318 144.762 298.217 146.476 297.665 148.068C297.113 149.659 296.132 151.068 294.83 152.137C290.335 155.808 280.178 151.574 280.741 143.68Z" fill="#263238" stroke="#263238" stroke-linecap="round" stroke-linejoin="round"/>
<path d="M274.14 142.908L254.482 136.057C254.482 136.057 252.647 145.161 258.341 148.571C266.694 153.649 273.577 144.316 274.14 142.908Z" fill="#263238" stroke="#263238" stroke-linecap="round" stroke-linejoin="round"/>
<path d="M273.254 153.868C273.254 153.868 267.341 159.562 269.75 160.438C270.532 160.661 271.355 160.697 272.153 160.545C272.952 160.393 273.704 160.057 274.349 159.562C274.349 159.562 276.758 163.942 278.729 162.628C280.7 161.314 279.615 155.401 278.291 153.649C277.993 153.252 277.602 152.934 277.153 152.722C276.704 152.509 276.211 152.41 275.715 152.431C275.218 152.453 274.735 152.595 274.306 152.845C273.878 153.096 273.516 153.447 273.254 153.868Z" fill="#263238" stroke="#263238" stroke-linecap="round" stroke-linejoin="round"/>
<path d="M280.94 181.034C279.71 183.049 278.06 184.775 276.101 186.092C274.869 186.988 273.568 187.787 272.211 188.48C269.583 189.805 262.127 186.52 260.594 184.976C259.564 183.544 258.82 181.925 258.404 180.21C257.57 177.457 257.048 174.214 257.528 172.264C257.877 171.189 258.435 170.194 259.171 169.337C259.906 168.479 260.805 167.777 261.814 167.269C263.562 166.244 265.633 165.916 267.612 166.351L278.322 169.031C279.075 169.222 279.755 169.629 280.279 170.202C280.803 170.774 281.149 171.487 281.273 172.254C281.273 172.441 281.336 172.65 281.367 172.869C281.711 175.497 281.972 179.105 280.94 181.034Z" fill="#263238" stroke="#263238" stroke-linecap="round" stroke-linejoin="round"/>
<path d="M272.211 188.48C273.582 187.789 274.897 186.99 276.142 186.092C277.638 185.044 278.976 183.787 280.115 182.359C280.063 179.772 278.864 179.095 277.467 181.472C275.934 184.1 274.401 184.538 271.992 184.538C269.583 184.538 264.327 183.443 262.794 181.034C261.261 178.625 262.356 176.435 260.374 175.34C258.393 174.245 258.185 177.092 258.185 177.092C258.185 177.092 258.091 177.666 257.955 178.542C258.091 179.105 258.237 179.668 258.404 180.21C258.82 181.925 259.563 183.544 260.593 184.976C262.085 186.52 269.541 189.805 272.211 188.48Z" fill="white" stroke="#263238" stroke-linecap="round" stroke-linejoin="round"/>
<path d="M281.472 173.974C281.419 173.588 281.378 173.223 281.326 172.869C281.273 172.514 281.263 172.441 281.232 172.254C281.107 171.487 280.762 170.774 280.237 170.202C279.713 169.629 279.033 169.222 278.28 169.031L267.571 166.351C265.591 165.916 263.521 166.244 261.772 167.269C261.194 167.581 260.649 167.952 260.146 168.374C261.188 169.344 264.15 171.586 270.198 172.931C273.891 173.794 277.684 174.145 281.472 173.974Z" fill="white" stroke="#263238" stroke-linecap="round" stroke-linejoin="round"/>
<path d="M270.636 149.061C270.636 149.061 268.446 151.689 262.752 153.451C257.059 155.214 253.106 153.013 252.449 150.375" stroke="#263238" stroke-linecap="round" stroke-linejoin="round"/>
<path d="M281.597 151.23C281.597 151.23 283.682 156.893 291.232 156.444" stroke="#263238" stroke-linecap="round" stroke-linejoin="round"/>
<path d="M276.383 141.813C277.04 141.594 277.04 141.375 277.04 138.966C277.04 136.557 273.098 134.357 271.346 133.043" stroke="#263238" stroke-linecap="round" stroke-linejoin="round"/>
<path d="M278.739 141.375C278.85 140.305 279.316 139.302 280.064 138.528C281.378 136.995 289.699 135.4 290.356 135.4" stroke="#263238" stroke-linecap="round" stroke-linejoin="round"/>
<path d="M266.913 155.839C264.874 157.148 262.748 158.319 260.552 159.343C256.829 161.095 252.668 160.386 252.668 168.541" stroke="#263238" stroke-linecap="round" stroke-linejoin="round"/>
<path d="M281.597 159.562C282.486 161.821 283.664 163.956 285.101 165.913C287.072 168.322 286.415 172.274 285.101 176.654" stroke="#263238" stroke-linecap="round" stroke-linejoin="round"/>
<path d="M297.375 158.446C297.375 158.446 296.718 160.198 293.203 160.855C289.689 161.512 286.414 161.293 286.633 164.578" stroke="#263238" stroke-linecap="round" stroke-linejoin="round"/>
<path d="M247.412 148.164C247.412 148.164 247.85 152.335 250.697 154.087C253.544 155.839 255.734 156.496 254.42 158.686" stroke="#263238" stroke-linecap="round" stroke-linejoin="round"/>
<path d="M249.603 133.481C249.219 132.895 249.015 132.21 249.015 131.51C249.015 130.81 249.219 130.125 249.603 129.539C250.917 127.349 252.012 123.407 251.574 117.484" stroke="#263238" stroke-linecap="round" stroke-linejoin="round"/>
<path d="M240.113 146.235C240.113 146.235 242.751 140.092 241.427 136.369C240.102 132.647 237.391 126.755 237.391 126.755C237.391 126.755 235.962 131.061 236.901 133.137C237.839 135.212 238.84 137.485 238.84 137.485C238.84 137.485 235.243 138.048 236.192 140.697C237.141 143.346 237.328 140.51 238.277 140.322C239.226 140.134 240.113 146.235 240.113 146.235Z" fill="#263238" stroke="#263238" stroke-linecap="round" stroke-linejoin="round"/>
<path d="M252.668 100.173C252.668 100.173 257.486 105.22 268.227 107.41" stroke="#263238" stroke-linecap="round" stroke-linejoin="round"/>
<path d="M282.691 108.505C289.531 110.154 296.646 110.304 303.548 108.943" stroke="#263238" stroke-linecap="round" stroke-linejoin="round"/>
<path d="M257.267 99.7346L253.763 105.001" stroke="#263238" stroke-linecap="round" stroke-linejoin="round"/>
<path d="M264.723 102.592L262.533 108.067" stroke="#263238" stroke-linecap="round" stroke-linejoin="round"/>
<path d="M285.1 105.658L284.443 111.79" stroke="#263238" stroke-linecap="round" stroke-linejoin="round"/>
<path d="M295.174 106.096L294.955 114.856" stroke="#263238" stroke-linecap="round" stroke-linejoin="round"/>
<path d="M264.066 122.99C264.066 122.99 269.76 125.618 273.921 127.37C278.082 129.122 285.976 128.684 290.794 128.246" stroke="#263238" stroke-linecap="round" stroke-linejoin="round"/>
<path d="M293.861 123.626C293.861 123.626 282.911 123.845 280.304 123.626" stroke="#263238" stroke-linecap="round" stroke-linejoin="round"/>
<path d="M263.628 116.608L273.045 120.122" stroke="#263238" stroke-linecap="round" stroke-linejoin="round"/>
<path d="M266.475 143.669C266.477 144.169 266.331 144.658 266.055 145.074C265.779 145.491 265.385 145.816 264.924 146.008C264.463 146.201 263.956 146.252 263.465 146.156C262.975 146.06 262.525 145.82 262.171 145.468C261.817 145.115 261.575 144.666 261.477 144.176C261.379 143.686 261.428 143.178 261.619 142.716C261.81 142.255 262.133 141.86 262.548 141.582C262.963 141.304 263.452 141.156 263.951 141.156C264.619 141.156 265.259 141.421 265.732 141.892C266.205 142.363 266.472 143.002 266.475 143.669Z" fill="#263238" stroke="#02ABFF" stroke-linecap="round" stroke-linejoin="round"/>
<path d="M288.823 149.593C290.217 149.593 291.347 148.463 291.347 147.069C291.347 145.675 290.217 144.545 288.823 144.545C287.43 144.545 286.3 145.675 286.3 147.069C286.3 148.463 287.43 149.593 288.823 149.593Z" fill="#263238" stroke="#02ABFF" stroke-linecap="round" stroke-linejoin="round"/>
<path d="M257.914 187.135C257.914 187.135 260.323 190.472 266.079 191.212C269.435 191.679 272.851 191.427 276.101 190.472C276.101 190.472 271.273 194.716 266.079 193.892C260.886 193.069 257.914 187.135 257.914 187.135Z" fill="#263238" stroke="#263238" stroke-linecap="round" stroke-linejoin="round"/>
<path d="M262.826 166.174C262.408 165.825 262.082 165.379 261.875 164.876C261.668 164.373 261.586 163.827 261.637 163.285" stroke="#263238" stroke-linecap="round" stroke-linejoin="round"/>
<path d="M272.722 167.373L272.889 164.818" stroke="#263238" stroke-linecap="round" stroke-linejoin="round"/>
<path d="M280.888 170.095C281.544 169.622 282.118 169.044 282.588 168.385" stroke="#263238" stroke-linecap="round" stroke-linejoin="round"/>
<path d="M258.362 180.21C258.362 180.21 256.391 181.66 256.391 182.682" stroke="#263238" stroke-linecap="round" stroke-linejoin="round"/>
<path d="M263.367 186.926L262.856 188.626" stroke="#263238" stroke-linecap="round" stroke-linejoin="round"/>
<path d="M276.101 186.092L275.955 189.137" stroke="#263238" stroke-linecap="round" stroke-linejoin="round"/>
<path d="M212.425 79.0134H148.332C147.779 79.0134 147.248 78.7936 146.857 78.4025C146.466 78.0113 146.246 77.4808 146.246 76.9277C146.246 76.3745 146.466 75.844 146.857 75.4529C147.248 75.0617 147.779 74.842 148.332 74.842H212.425C212.978 74.842 213.508 75.0617 213.899 75.4529C214.291 75.844 214.51 76.3745 214.51 76.9277C214.51 77.2016 214.456 77.4728 214.352 77.7258C214.247 77.9789 214.093 78.2088 213.899 78.4025C213.706 78.5962 213.476 78.7498 213.223 78.8546C212.97 78.9594 212.699 79.0134 212.425 79.0134Z" fill="#6E6E6E" stroke="#263238" stroke-linecap="round" stroke-linejoin="round"/>
<path d="M168.834 74.769H148.332C147.769 74.769 147.23 74.9926 146.832 75.3906C146.434 75.7886 146.21 76.3283 146.21 76.8912C146.21 77.454 146.434 77.9938 146.832 78.3918C147.23 78.7898 147.769 79.0134 148.332 79.0134H168.834V74.769Z" fill="#263238" stroke="#263238" stroke-linecap="round" stroke-linejoin="round"/>
<path d="M456.408 256.943H46.416V420.011H456.408V256.943Z" fill="#CFCFCF" stroke="#263238" stroke-linecap="round" stroke-linejoin="round"/>
<path d="M456.408 256.943H46.416V263.533H456.408V256.943Z" fill="#263238" stroke="#263238" stroke-linecap="round" stroke-linejoin="round"/>
<path d="M314.071 270.343H188.742V410.5H314.071V270.343Z" fill="#CFCFCF" stroke="#263238" stroke-linecap="round" stroke-linejoin="round"/>
<path d="M308.867 276.162H193.946V404.671H308.867V276.162Z" fill="#CFCFCF" stroke="#263238" stroke-linecap="round" stroke-linejoin="round"/>
<path d="M251.406 276.308V405.067" stroke="#263238" stroke-linecap="round" stroke-linejoin="round"/>
<path d="M180.91 356.69H52.9121V410.271H180.91V356.69Z" fill="#A1A1A1" stroke="#263238" stroke-linecap="round" stroke-linejoin="round"/>
<path d="M180.91 267.319H52.9121V320.9H180.91V267.319Z" fill="#A1A1A1" stroke="#263238" stroke-linecap="round" stroke-linejoin="round"/>
<path d="M451.204 267.319H323.206V335.541H451.204V267.319Z" fill="#A1A1A1" stroke="#263238" stroke-linecap="round" stroke-linejoin="round"/>
<path d="M451.204 342.038H323.206V410.261H451.204V342.038Z" fill="#CFCFCF" stroke="#263238" stroke-linecap="round" stroke-linejoin="round"/>
<path d="M405.746 372.26H368.663V380.05H405.746V372.26Z" fill="#263238" stroke="#263238" stroke-linecap="round" stroke-linejoin="round"/>
<path d="M134.484 334.895H97.4004V342.685H134.484V334.895Z" fill="#263238" stroke="#263238" stroke-linecap="round" stroke-linejoin="round"/>
<path d="M464.083 247.828H38.7402V258.59H464.083V247.828Z" fill="#CFCFCF" stroke="#263238" stroke-linecap="round" stroke-linejoin="round"/>
<path d="M437.344 314.684H333.676V335.552H437.344V314.684Z" fill="#263238" stroke="#263238" stroke-linecap="round" stroke-linejoin="round"/>
<path d="M432.463 328.544C432.463 327.793 411.075 327.188 384.701 327.188C358.328 327.188 336.939 327.793 336.939 328.544C336.939 329.295 358.328 329.91 384.701 329.91C411.075 329.91 432.463 329.295 432.463 328.544Z" fill="#CFCFCF" stroke="#263238" stroke-linecap="round" stroke-linejoin="round"/>
<path d="M64.8214 270.875H54.3096V320.556H64.8214V270.875Z" fill="#CFCFCF" stroke="#263238" stroke-linecap="round" stroke-linejoin="round"/>
<path d="M76.9708 270.875H66.459V320.556H76.9708V270.875Z" fill="#CFCFCF" stroke="#263238" stroke-linecap="round" stroke-linejoin="round"/>
<path d="M180.003 270.875H169.491V320.556H180.003V270.875Z" fill="#CFCFCF" stroke="#263238" stroke-linecap="round" stroke-linejoin="round"/>
<path d="M168.907 270.875H158.396V320.556H168.907V270.875Z" fill="#CFCFCF" stroke="#263238" stroke-linecap="round" stroke-linejoin="round"/>
<path d="M157.812 270.875H147.3V320.556H157.812V270.875Z" fill="#CFCFCF" stroke="#263238" stroke-linecap="round" stroke-linejoin="round"/>
<path d="M146.716 270.875H136.204V320.556H146.716V270.875Z" fill="#CFCFCF" stroke="#263238" stroke-linecap="round" stroke-linejoin="round"/>
<path d="M135.62 270.875H125.108V320.556H135.62V270.875Z" fill="#CFCFCF" stroke="#263238" stroke-linecap="round" stroke-linejoin="round"/>
<path d="M88.0106 270.394L77.8994 273.268L91.4849 321.056L101.596 318.181L88.0106 270.394Z" fill="#CFCFCF" stroke="#263238" stroke-linecap="round" stroke-linejoin="round"/>
<path d="M135.745 460.651C135.745 460.651 158.99 425.017 163.245 410.699C167.5 396.38 164.152 376.014 162.859 363.114C161.566 350.214 167.927 317.594 167.927 317.594C167.927 317.594 162.129 295.027 165.351 293.087C168.574 291.148 179.951 290.386 184.56 288.832C189.17 287.279 191.912 287.675 196.032 289.74C198.135 290.723 200.125 291.933 201.965 293.348L199.129 297.728L188.294 300.053L195.26 336.417C195.26 336.417 216.409 341.84 217.441 343.644C218.473 345.448 217.566 353.03 215.355 359.37C213.145 365.711 214.198 370.08 210.329 371.363C206.46 372.645 204.134 373.448 203.749 372.27C203.363 371.092 198.461 391.229 194.978 397.548C192.58 402.178 190.598 407.011 189.055 411.992C189.055 411.992 183.08 471.089 183.976 472.476" fill="white"/>
<path d="M135.745 460.651C135.745 460.651 158.99 425.017 163.245 410.699C167.5 396.38 164.152 376.014 162.859 363.114C161.566 350.214 167.927 317.594 167.927 317.594C167.927 317.594 162.129 295.027 165.351 293.087C168.574 291.148 179.951 290.386 184.56 288.832C189.17 287.279 191.912 287.675 196.032 289.74C198.135 290.723 200.125 291.933 201.965 293.348L199.129 297.728L188.294 300.053L195.26 336.417C195.26 336.417 216.409 341.84 217.441 343.644C218.473 345.448 217.566 353.03 215.355 359.37C213.145 365.711 214.198 370.08 210.329 371.363C206.46 372.645 204.134 373.448 203.749 372.27C203.363 371.092 198.461 391.229 194.978 397.548C192.58 402.178 190.598 407.011 189.055 411.992C189.055 411.992 183.08 471.089 183.976 472.476" stroke="#263238" stroke-linecap="round" stroke-linejoin="round"/>
<path d="M187.908 305.779C187.908 305.779 178.523 302.806 177.167 301.503C177.287 303.938 178.073 306.294 179.44 308.313C181.714 311.629 181.359 318.439 181.359 318.439L194.812 343.936L202.988 373.918C203.394 372.687 203.666 372.03 203.739 372.27C204.124 373.428 206.45 372.656 210.319 371.363C214.188 370.07 213.155 365.69 215.345 359.37C216.424 356.211 217.182 352.951 217.608 349.64V344.155C217.557 343.979 217.491 343.808 217.41 343.644C216.367 341.84 195.229 336.417 195.229 336.417L189.827 308.042L187.908 305.779Z" fill="#263238" stroke="#263238" stroke-linecap="round" stroke-linejoin="round"/>
<path d="M202.508 357.368L206.471 349.14" stroke="#263238" stroke-linecap="round" stroke-linejoin="round"/>
<path d="M173.673 299.303C176.508 301.674 179.733 303.537 183.204 304.809" stroke="#263238" stroke-linecap="round" stroke-linejoin="round"/>
<path d="M393.691 429.438C393.691 429.438 351.55 391.896 350.757 390.384C349.965 388.872 331.131 341.256 327.867 333.216C324.603 325.175 319.024 323.486 316.396 319.961C313.768 316.436 308.053 301.19 306.583 294.067C305.112 286.945 306.677 281.074 293.026 280.896C279.375 280.719 285.955 279.134 281.179 279.854C276.403 280.573 274.463 285.339 274.463 285.339L287.885 283.67L290.46 284.713C293.036 285.756 293.203 289.406 293.203 289.406C293.203 289.406 295.591 314.236 296.029 319.096C296.467 323.955 299.325 344.895 299.325 344.895C299.325 344.895 282.337 338.962 280.919 338.253C279.5 337.543 274.734 343.55 273.233 348.764C271.731 353.979 275.704 357.107 279.417 362.019C283.129 366.931 289.668 367.15 289.668 367.15L318.096 397.455L352.03 461.912" fill="white"/>
<path d="M393.691 429.438C393.691 429.438 351.55 391.896 350.757 390.384C349.965 388.872 331.131 341.256 327.867 333.216C324.603 325.175 319.024 323.486 316.396 319.961C313.768 316.436 308.053 301.19 306.583 294.067C305.112 286.945 306.677 281.074 293.026 280.896C279.375 280.719 285.955 279.134 281.179 279.854C276.403 280.573 274.463 285.339 274.463 285.339L287.885 283.67L290.46 284.713C293.036 285.756 293.203 289.406 293.203 289.406C293.203 289.406 295.591 314.236 296.029 319.096C296.467 323.955 299.325 344.895 299.325 344.895C299.325 344.895 282.337 338.962 280.919 338.253C279.5 337.543 274.734 343.55 273.233 348.764C271.731 353.979 275.704 357.107 279.417 362.019C283.129 366.931 289.668 367.15 289.668 367.15L318.096 397.455L352.03 461.912" stroke="#263238" stroke-linecap="round" stroke-linejoin="round"/>
<path d="M298.907 323.496C297.361 319.845 296.187 316.047 295.403 312.161C295.695 315.289 295.935 317.834 296.05 319.075C296.457 323.496 298.855 341.266 299.283 344.416C300.18 343.863 300.92 343.498 300.92 343.498C301.874 341.324 302.378 338.979 302.401 336.605C302.453 332.496 301.619 329.003 298.907 323.496Z" fill="#263238" stroke="#263238" stroke-linecap="round" stroke-linejoin="round"/>
<path d="M298.209 363.322C298.564 361.748 296.197 349.442 295.936 347.774C295.79 346.846 297.386 345.615 298.804 344.708C295.915 343.665 282.202 338.878 280.94 338.253C279.678 337.627 274.756 343.55 273.254 348.764C271.753 353.979 275.726 357.107 279.438 362.019C283.151 366.931 289.689 367.15 289.689 367.15L290.962 368.505C294.737 366.19 298.063 363.99 298.209 363.322Z" fill="#263238" stroke="#263238" stroke-linecap="round" stroke-linejoin="round"/>
<path d="M292.776 287.529L298.282 336.323C298.411 337.482 298.075 338.644 297.347 339.556C296.62 340.467 295.561 341.052 294.402 341.183L193.456 352.539C192.296 352.669 191.132 352.333 190.219 351.606C189.307 350.879 188.719 349.819 188.586 348.66L183.1 299.866C183.035 299.29 183.084 298.708 183.244 298.151C183.405 297.595 183.673 297.076 184.034 296.623C184.396 296.171 184.843 295.794 185.35 295.515C185.857 295.236 186.415 295.059 186.99 294.996L287.926 283.65C289.083 283.524 290.243 283.861 291.152 284.588C292.061 285.315 292.645 286.373 292.776 287.529Z" fill="#263238" stroke="#263238" stroke-linecap="round" stroke-linejoin="round"/>
<path d="M210.895 304.416L199.506 305.698L200.841 317.563L212.23 316.282L210.895 304.416Z" fill="#CDCDCD" stroke="#263238" stroke-linecap="round" stroke-linejoin="round"/>
<path d="M213.509 327.661L202.12 328.942L203.455 340.808L214.844 339.526L213.509 327.661Z" fill="#CDCDCD" stroke="#263238" stroke-linecap="round" stroke-linejoin="round"/>
<path d="M200.845 317.567L188.979 318.903L190.261 330.292L202.127 328.956L200.845 317.567Z" fill="#CDCDCD" stroke="#263238" stroke-linecap="round" stroke-linejoin="round"/>
<path d="M224.089 314.943L212.224 316.278L213.505 327.667L225.371 326.332L224.089 314.943Z" fill="#CDCDCD" stroke="#263238" stroke-linecap="round" stroke-linejoin="round"/>
<path d="M269.625 326.792C269.452 325.254 268.827 323.803 267.829 322.62C266.831 321.438 265.505 320.578 264.019 320.15C262.532 319.721 260.952 319.743 259.478 320.213C258.003 320.683 256.702 321.58 255.737 322.789C254.773 323.999 254.189 325.467 254.059 327.009C253.929 328.551 254.259 330.096 255.008 331.45C255.757 332.804 256.89 333.906 258.265 334.615C259.64 335.325 261.194 335.611 262.732 335.437C264.792 335.204 266.675 334.162 267.968 332.541C269.26 330.92 269.856 328.852 269.625 326.792Z" fill="#CDCDCD" stroke="#263238" stroke-linecap="round" stroke-linejoin="round"/>
<path d="M289.741 295.559C289.567 294.022 288.941 292.572 287.942 291.391C286.944 290.211 285.618 289.352 284.132 288.925C282.646 288.497 281.067 288.52 279.593 288.99C278.12 289.46 276.819 290.356 275.855 291.564C274.891 292.773 274.307 294.241 274.176 295.782C274.046 297.322 274.375 298.867 275.122 300.221C275.87 301.575 277.001 302.677 278.374 303.387C279.748 304.098 281.301 304.386 282.837 304.214C284.9 303.981 286.786 302.939 288.081 301.316C289.375 299.693 289.973 297.622 289.741 295.559Z" fill="#CDCDCD" stroke="#263238" stroke-linecap="round" stroke-linejoin="round"/>
<path d="M279.667 311.035C279.492 309.498 278.866 308.048 277.868 306.867C276.87 305.686 275.544 304.828 274.058 304.401C272.572 303.973 270.992 303.996 269.519 304.466C268.046 304.935 266.745 305.831 265.781 307.04C264.817 308.249 264.233 309.717 264.102 311.257C263.972 312.798 264.301 314.343 265.048 315.697C265.795 317.05 266.927 318.152 268.3 318.863C269.673 319.574 271.227 319.862 272.763 319.69C273.785 319.576 274.775 319.261 275.675 318.765C276.575 318.268 277.369 317.598 278.01 316.794C278.651 315.99 279.128 315.068 279.412 314.079C279.696 313.091 279.783 312.056 279.667 311.035Z" fill="#CDCDCD" stroke="#263238" stroke-linecap="round" stroke-linejoin="round"/>
<path d="M246.374 317.295L234.985 318.577L235.547 323.572L246.936 322.29L246.374 317.295Z" fill="#CDCDCD" stroke="#263238" stroke-linecap="round" stroke-linejoin="round"/>
<path d="M212.54 292.117C217.003 298.041 227.244 301.503 238.611 300.179C249.978 298.854 259.249 293.285 262.294 286.528L212.54 292.117ZM242.866 337.669C232.437 338.837 223.928 343.582 220.184 349.526L267.644 344.197C262.659 339.222 253.252 336.501 242.866 337.669Z" fill="white" stroke="#263238" stroke-linecap="round" stroke-linejoin="round"/>
<path d="M184.749 353.228C184.749 353.228 181.912 335.823 180.369 331.203C178.825 326.583 176.583 322.798 177.407 320.545C178.231 318.293 191.496 314.288 191.496 314.288C191.496 314.288 203.155 304.903 204.698 306.529C206.241 308.156 207.357 313.339 207.305 315.529C207.253 317.719 204.761 320.91 202.091 322.391C199.12 324.322 196.255 326.411 193.508 328.648C193.508 328.648 196.637 343.978 200.61 353.509C204.583 363.041 206.116 381.27 204.938 387.787C203.76 394.305 184.749 412.471 184.749 412.471" fill="white"/>
<path d="M184.749 353.228C184.749 353.228 181.912 335.823 180.369 331.203C178.825 326.583 176.583 322.798 177.407 320.545C178.231 318.293 191.496 314.288 191.496 314.288C191.496 314.288 203.155 304.903 204.698 306.529C206.241 308.156 207.357 313.339 207.305 315.529C207.253 317.719 204.761 320.91 202.091 322.391C199.12 324.322 196.255 326.411 193.508 328.648C193.508 328.648 196.637 343.978 200.61 353.509C204.583 363.041 206.116 381.27 204.938 387.787C203.76 394.305 184.749 412.471 184.749 412.471" stroke="#263238" stroke-linecap="round" stroke-linejoin="round"/>
<path d="M307.542 348.243C307.542 348.243 289.428 330.817 286.331 325.958C283.234 321.098 281.471 323.528 278.739 322.381C276.007 321.233 265.078 319.701 260.479 317.396C255.88 315.091 251.73 321.828 255.161 325.874C258.468 329.637 262.548 332.642 267.122 334.686C271.478 336.693 275.685 339.011 279.709 341.621C279.709 341.621 285.09 356.909 289.689 367.16C294.288 377.411 302.943 392.783 309.837 394.9C313.89 396.161 318.051 397.048 322.267 397.548" fill="white"/>
<path d="M307.542 348.243C307.542 348.243 289.428 330.817 286.331 325.958C283.234 321.098 281.471 323.528 278.739 322.381C276.007 321.233 265.078 319.701 260.479 317.396C255.88 315.091 251.73 321.828 255.161 325.874C258.468 329.637 262.548 332.642 267.122 334.686C271.478 336.693 275.685 339.011 279.709 341.621C279.709 341.621 285.09 356.909 289.689 367.16C294.288 377.411 302.943 392.783 309.837 394.9C313.89 396.161 318.051 397.048 322.267 397.548" stroke="#263238" stroke-linecap="round" stroke-linejoin="round"/>
<path d="M281.523 323.768C281.523 323.768 278.04 326.385 276.81 329.701" stroke="#263238" stroke-linecap="round" stroke-linejoin="round"/>
</svg>
