<svg width="24" height="24" viewBox="0 0 24 24" fill="none" xmlns="http://www.w3.org/2000/svg">
<rect x="0.352941" y="0.352941" width="23.2941" height="23.2941" rx="11.6471" stroke="white" stroke-width="0.705882"/>
<path d="M12.0001 20.4309C11.9982 20.4309 11.9964 20.4309 11.9945 20.4309L10.27 20.4004C8.16263 20.3633 6.5166 18.695 6.44124 16.5194L6.18029 12.971C6.1596 12.693 6.02341 12.4312 5.80599 12.253C5.23591 11.7842 4.27948 10.6869 4.27948 8.60298C4.27948 6.90044 5.38754 5.07715 6.97458 4.1689C8.04991 3.55372 9.12245 3.4969 9.99488 4.00923C10.0986 4.07007 10.1576 4.18619 10.1459 4.30601C10.1338 4.42615 10.0532 4.52806 9.9396 4.56759C9.59402 4.6871 9.06964 4.89834 8.67342 5.10988L9.01004 5.22198C9.13388 5.26306 9.21819 5.37794 9.22097 5.50857C9.22344 5.6392 9.14376 5.75748 9.02147 5.80381C8.9282 5.83901 6.75007 6.69106 6.75007 8.91181C6.75007 9.56991 6.95574 10.0671 7.36123 10.3905C7.81736 10.7536 8.44644 10.8234 8.83833 10.7332C9.67555 10.5415 10.6505 10.4559 12.0001 10.4559C13.3496 10.4559 14.3246 10.5415 15.1618 10.7332C15.5531 10.8231 16.1825 10.7533 16.6389 10.3905C17.0444 10.0671 17.2501 9.56991 17.2501 8.91181C17.2501 6.68087 15.0025 5.81245 14.9799 5.80412C14.8576 5.7581 14.777 5.64013 14.7795 5.50919C14.782 5.37825 14.8666 5.26337 14.9907 5.22198L15.3273 5.10988C14.9311 4.89834 14.4067 4.6871 14.0612 4.56759C13.9472 4.52806 13.8666 4.42615 13.8549 4.30601C13.8428 4.18619 13.9018 4.07007 14.0059 4.00923C14.878 3.49659 15.9508 3.5531 17.0262 4.1689C18.6126 5.07715 19.7207 6.90044 19.7207 8.60298C19.7207 10.6869 18.7642 11.7842 18.1941 12.2524C17.9767 12.4309 17.8402 12.6927 17.8198 12.9707L17.558 16.5311C17.4835 18.6947 15.8375 20.363 13.7298 20.4L12.0056 20.4309C12.0038 20.4309 12.0019 20.4309 12.0001 20.4309Z" fill="white"/>
<path d="M9.37509 14.4707C8.60766 14.4707 7.98538 15.231 7.98538 16.1692C7.98538 17.1074 8.60766 17.8677 9.37509 17.8677C10.1425 17.8677 10.7648 17.1074 10.7648 16.1692C10.7648 15.231 10.1425 14.4707 9.37509 14.4707Z" fill="black"/>
<path d="M14.6251 14.4707C13.8577 14.4707 13.2354 15.231 13.2354 16.1692C13.2354 17.1074 13.8577 17.8677 14.6251 17.8677C15.3925 17.8677 16.0148 17.1074 16.0148 16.1692C16.0148 15.231 15.3925 14.4707 14.6251 14.4707Z" fill="black"/>
</svg>
